<?xml version="1.0" encoding="UTF-8" standalone="no"?><!-- Generator: Gravit.io --><svg xmlns="http://www.w3.org/2000/svg" xmlns:xlink="http://www.w3.org/1999/xlink" style="isolation:isolate" viewBox="651 390 150 66.385" width="150pt" height="66.385pt"><g><g><g><linearGradient id="_lgradient_0" x1="0.5001776061776084" y1="0.0002686308492192424" x2="0.5001776061776083" y2="0.6613656845753901" gradientTransform="matrix(12.16,0,0,17.934,709.498,407.512)" gradientUnits="userSpaceOnUse"><stop offset="0%" stop-opacity="1" style="stop-color:rgb(114,191,68)"/><stop offset="100%" stop-opacity="1" style="stop-color:rgb(0,101,46)"/></linearGradient><path d=" M 709.498 425.352 L 709.498 425.446 L 721.657 425.446 L 721.657 407.512 L 709.498 425.352 Z " fill="url(#_lgradient_0)"/><g><linearGradient id="_lgradient_1" x1="0.5013425196850392" y1="0.002752808988759625" x2="0.5013425196850384" y2="4.2427865168539185" gradientTransform="matrix(11.925,0,0,17.746,674.85,407.7)" gradientUnits="userSpaceOnUse"><stop offset="0%" stop-opacity="1" style="stop-color:rgb(114,191,68)"/><stop offset="100%" stop-opacity="1" style="stop-color:rgb(0,101,46)"/></linearGradient><path d=" M 674.85 407.7 L 674.85 425.446 L 686.775 425.446 L 674.85 407.7 Z " fill="url(#_lgradient_1)"/><linearGradient id="_lgradient_2" x1="0.5000030150753769" y1="-0.0001699716713883248" x2="0.5000030150753767" y2="1.0369504249291785" gradientTransform="matrix(46.714,0,0,34.366,674.897,390)" gradientUnits="userSpaceOnUse"><stop offset="0%" stop-opacity="1" style="stop-color:rgb(114,191,68)"/><stop offset="100%" stop-opacity="1" style="stop-color:rgb(0,101,46)"/></linearGradient><path d=" M 698.23 424.366 L 721.61 390 L 708.746 390 L 698.277 406.291 L 687.761 390 L 674.897 390 L 698.042 424.366 L 698.23 424.366 Z " fill="url(#_lgradient_2)"/></g></g><g><path d=" M 743.207 390 L 728.136 390 L 728.136 398.216 L 737.901 398.216 L 740.484 398.216 L 742.455 398.216 C 745.977 398.216 748.089 399.812 748.089 402.864 L 748.089 402.958 C 748.089 405.728 745.977 407.512 742.502 407.512 L 740.484 407.512 L 737.901 407.512 L 728.136 407.512 L 728.136 425.211 L 737.901 425.211 L 737.901 415.164 L 742.737 415.164 C 751.469 415.164 757.901 410.798 757.901 402.488 L 757.901 402.394 C 757.854 394.554 752.127 390 743.207 390 Z " fill="rgb(29,26,106)"/><g><path d=" M 771.986 392.3 L 771.986 390 L 762.174 390 L 762.174 407.23 L 771.986 392.3 Z " fill="rgb(29,26,106)"/><path d=" M 762.174 424.883 L 762.174 425.211 L 771.986 425.211 L 771.986 409.812 L 762.174 424.883 Z " fill="rgb(29,26,106)"/></g></g></g><g><path d=" M 651 434.742 L 654.146 434.742 L 656.681 438.873 L 659.216 434.742 L 662.362 434.742 L 662.362 445.446 L 659.404 445.446 L 659.404 439.296 L 656.681 443.474 L 656.634 443.474 L 653.911 439.343 L 653.911 445.446 L 651 445.446 L 651 434.742 Z " fill="rgb(29,26,106)"/><path d=" M 664.239 434.742 L 672.831 434.742 L 672.831 437.277 L 667.15 437.277 L 667.15 438.873 L 672.268 438.873 L 672.268 441.221 L 667.15 441.221 L 667.15 442.911 L 672.878 442.911 L 672.878 445.446 L 664.192 445.446 L 664.192 434.742 L 664.239 434.742 Z " fill="rgb(29,26,106)"/><path d=" M 674.005 440.141 L 674.005 440.141 C 674.005 436.995 676.399 434.554 679.638 434.554 C 681.845 434.554 683.207 435.493 684.192 436.808 L 681.986 438.545 C 681.376 437.793 680.671 437.277 679.638 437.277 C 678.136 437.277 677.103 438.545 677.103 440.094 L 677.103 440.141 C 677.103 441.737 678.136 443.005 679.638 443.005 C 680.765 443.005 681.423 442.488 682.033 441.69 L 684.286 443.286 C 683.3 444.695 681.939 445.681 679.545 445.681 C 676.446 445.681 674.005 443.333 674.005 440.141 Z " fill="rgb(29,26,106)"/><path d=" M 689.122 434.695 L 691.986 434.695 L 696.54 445.446 L 693.347 445.446 L 692.549 443.521 L 688.418 443.521 L 687.667 445.446 L 684.568 445.446 L 689.122 434.695 Z  M 691.704 441.221 L 690.531 438.169 L 689.31 441.221 L 691.704 441.221 Z " fill="rgb(29,26,106)"/><path d=" M 697.573 434.742 L 700.343 434.742 L 704.756 440.376 L 704.756 434.742 L 707.667 434.742 L 707.667 445.446 L 705.085 445.446 L 700.531 439.577 L 700.531 445.446 L 697.62 445.446 L 697.62 434.742 L 697.573 434.742 Z " fill="rgb(29,26,106)"/><path d=" M 709.216 440.141 L 709.216 440.141 C 709.216 437.042 711.704 434.554 714.991 434.554 C 718.277 434.554 720.718 436.995 720.718 440.094 L 720.718 440.141 C 720.718 443.192 718.23 445.681 714.944 445.681 C 711.657 445.681 709.216 443.192 709.216 440.141 Z  M 717.714 440.141 L 717.714 440.141 C 717.714 438.545 716.587 437.23 714.944 437.23 C 713.347 437.23 712.221 438.545 712.221 440.094 L 712.221 440.141 C 712.221 441.69 713.347 443.005 714.944 443.005 C 716.587 443.005 717.714 441.69 717.714 440.141 Z " fill="rgb(29,26,106)"/><path d=" M 722.268 434.742 L 726.869 434.742 C 729.592 434.742 731.329 436.15 731.329 438.498 L 731.329 438.545 C 731.329 441.08 729.404 442.394 726.728 442.394 L 725.272 442.394 L 725.272 445.446 L 722.315 445.446 L 722.315 434.742 L 722.268 434.742 Z  M 726.634 440.047 C 727.667 440.047 728.324 439.484 728.324 438.638 L 728.324 438.592 C 728.324 437.653 727.667 437.183 726.634 437.183 L 725.225 437.183 L 725.225 440 L 726.634 440 L 726.634 440.047 Z " fill="rgb(29,26,106)"/><path d=" M 732.549 434.742 L 735.507 434.742 L 735.507 442.817 L 740.671 442.817 L 740.671 445.399 L 732.549 445.399 L 732.549 434.742 Z " fill="rgb(29,26,106)"/><path d=" M 745.648 434.695 L 748.512 434.695 L 753.066 445.446 L 749.873 445.446 L 749.075 443.521 L 744.944 443.521 L 744.192 445.446 L 741.094 445.446 L 745.648 434.695 Z  M 748.23 441.221 L 747.056 438.169 L 745.836 441.221 L 748.23 441.221 Z  M 747.479 431.221 L 750.202 432.113 L 747.948 434.085 L 745.883 434.085 L 747.479 431.221 Z " fill="rgb(29,26,106)"/><path d=" M 753.3 443.85 L 754.944 441.878 C 755.977 442.723 757.15 443.146 758.418 443.146 C 759.216 443.146 759.638 442.864 759.638 442.394 L 759.638 442.347 C 759.638 441.925 759.31 441.643 757.854 441.315 C 755.601 440.798 753.817 440.141 753.817 437.934 L 753.817 437.887 C 753.817 435.915 755.366 434.46 757.948 434.46 C 759.779 434.46 761.188 434.93 762.362 435.869 L 760.859 437.981 C 759.873 437.277 758.793 436.948 757.854 436.948 C 757.15 436.948 756.775 437.277 756.775 437.653 L 756.775 437.7 C 756.775 438.169 757.15 438.404 758.606 438.732 C 761.047 439.249 762.596 440.047 762.596 442.066 L 762.596 442.113 C 762.596 444.319 760.859 445.587 758.277 445.587 C 756.399 445.634 754.615 445.023 753.3 443.85 Z " fill="rgb(29,26,106)"/><path d=" M 766.352 437.371 L 763.16 437.371 L 763.16 434.789 L 772.549 434.789 L 772.549 437.371 L 769.357 437.371 L 769.357 445.446 L 766.399 445.446 L 766.399 437.371 L 766.352 437.371 Z " fill="rgb(29,26,106)"/><path d=" M 773.911 434.742 L 776.869 434.742 L 776.869 445.446 L 773.911 445.446 L 773.911 434.742 Z " fill="rgb(29,26,106)"/><path d=" M 778.465 440.141 L 778.465 440.141 C 778.465 436.995 780.859 434.554 784.099 434.554 C 786.305 434.554 787.667 435.493 788.653 436.808 L 786.446 438.545 C 785.836 437.793 785.131 437.277 784.099 437.277 C 782.596 437.277 781.563 438.545 781.563 440.094 L 781.563 440.141 C 781.563 441.737 782.596 443.005 784.099 443.005 C 785.225 443.005 785.883 442.488 786.493 441.69 L 788.746 443.286 C 787.761 444.695 786.399 445.681 784.005 445.681 C 780.953 445.681 778.465 443.333 778.465 440.141 Z " fill="rgb(29,26,106)"/><path d=" M 793.582 434.695 L 796.446 434.695 L 801 445.446 L 797.808 445.446 L 797.009 443.521 L 792.878 443.521 L 792.127 445.446 L 789.028 445.446 L 793.582 434.695 Z  M 796.211 441.221 L 795.038 438.169 L 793.817 441.221 L 796.211 441.221 Z " fill="rgb(29,26,106)"/></g><g><path d=" M 651.798 449.014 L 651.798 456.197 L 651 456.197 L 651 449.014 L 651.798 449.014 Z " fill="rgb(29,26,106)"/><path d=" M 668.84 449.014 L 669.638 449.014 L 669.638 456.197 L 668.981 456.197 L 664.333 450.329 L 664.333 456.197 L 663.535 456.197 L 663.535 449.014 L 664.286 449.014 L 668.793 454.789 L 668.793 449.014 L 668.84 449.014 Z " fill="rgb(29,26,106)"/><path d=" M 687.338 453.991 C 687.15 454.413 686.869 454.836 686.54 455.117 C 686.211 455.446 685.789 455.681 685.319 455.869 C 684.85 456.056 684.333 456.15 683.77 456.15 L 681.282 456.15 L 681.282 448.967 L 683.77 448.967 C 684.333 448.967 684.85 449.061 685.319 449.249 C 685.789 449.437 686.211 449.671 686.54 450 C 686.869 450.329 687.15 450.704 687.338 451.127 C 687.526 451.549 687.62 452.019 687.62 452.535 C 687.62 453.099 687.526 453.568 687.338 453.991 Z  M 686.54 451.502 C 686.399 451.174 686.211 450.845 685.93 450.61 C 685.695 450.376 685.366 450.141 684.991 450 C 684.615 449.859 684.192 449.765 683.77 449.765 L 682.08 449.765 L 682.08 455.446 L 683.77 455.446 C 684.239 455.446 684.615 455.352 684.991 455.211 C 685.366 455.07 685.695 454.883 685.93 454.601 C 686.164 454.366 686.399 454.038 686.54 453.709 C 686.681 453.38 686.728 453.005 686.728 452.582 C 686.775 452.207 686.681 451.831 686.54 451.502 Z " fill="rgb(29,26,106)"/><path d=" M 704.803 453.099 C 704.803 453.615 704.709 454.085 704.568 454.507 C 704.427 454.883 704.239 455.258 703.958 455.493 C 703.676 455.775 703.394 455.962 703.019 456.103 C 702.643 456.244 702.268 456.291 701.798 456.291 C 701.376 456.291 700.953 456.244 700.577 456.103 C 700.202 455.962 699.92 455.775 699.638 455.493 C 699.357 455.211 699.169 454.883 699.028 454.507 C 698.887 454.131 698.793 453.662 698.793 453.146 L 698.793 448.967 L 699.592 448.967 L 699.592 453.099 C 699.592 453.897 699.779 454.46 700.155 454.883 C 700.531 455.305 701.094 455.493 701.751 455.493 C 702.408 455.493 702.925 455.305 703.347 454.883 C 703.723 454.507 703.911 453.897 703.911 453.099 L 703.911 448.92 L 704.709 448.92 L 704.709 453.099 L 704.803 453.099 Z " fill="rgb(29,26,106)"/><path d=" M 717.103 451.268 C 717.15 451.408 717.244 451.549 717.385 451.643 C 717.526 451.737 717.714 451.878 717.995 451.972 C 718.23 452.066 718.559 452.16 718.981 452.254 C 719.779 452.441 720.39 452.676 720.765 453.005 C 721.141 453.333 721.329 453.756 721.329 454.319 C 721.329 454.648 721.282 454.93 721.141 455.164 C 721 455.399 720.859 455.634 720.624 455.822 C 720.39 456.009 720.155 456.15 719.873 456.244 C 719.592 456.338 719.263 456.385 718.887 456.385 C 718.324 456.385 717.808 456.291 717.291 456.103 C 716.822 455.915 716.352 455.634 715.93 455.258 L 716.446 454.648 C 716.822 454.977 717.197 455.258 717.573 455.399 C 717.948 455.587 718.418 455.634 718.887 455.634 C 719.357 455.634 719.779 455.54 720.061 455.305 C 720.343 455.07 720.484 454.789 720.484 454.413 C 720.484 454.225 720.437 454.085 720.39 453.944 C 720.343 453.803 720.249 453.709 720.108 453.568 C 719.967 453.474 719.779 453.38 719.545 453.286 C 719.31 453.192 718.981 453.099 718.606 453.052 C 718.183 452.958 717.854 452.864 717.526 452.723 C 717.197 452.629 716.962 452.488 716.775 452.3 C 716.587 452.16 716.446 451.925 716.352 451.737 C 716.258 451.502 716.211 451.268 716.211 450.939 C 716.211 450.657 716.258 450.376 716.399 450.141 C 716.493 449.906 716.681 449.671 716.869 449.531 C 717.056 449.343 717.338 449.202 717.62 449.108 C 717.901 449.014 718.23 448.967 718.559 448.967 C 719.075 448.967 719.545 449.061 719.92 449.202 C 720.296 449.343 720.671 449.577 721.047 449.859 L 720.577 450.469 C 720.249 450.188 719.92 450 719.545 449.859 C 719.216 449.718 718.84 449.671 718.465 449.671 C 718.23 449.671 718.042 449.718 717.854 449.765 C 717.667 449.812 717.526 449.906 717.385 450 C 717.244 450.094 717.15 450.235 717.056 450.376 C 716.962 450.516 716.962 450.657 716.962 450.845 C 717.009 450.939 717.056 451.127 717.103 451.268 Z " fill="rgb(29,26,106)"/><path d=" M 735.131 456.197 L 734.333 456.197 L 734.333 449.765 L 731.939 449.765 L 731.939 449.014 L 737.573 449.014 L 737.573 449.765 L 735.178 449.765 L 735.178 456.197 L 735.131 456.197 Z " fill="rgb(29,26,106)"/><path d=" M 753.676 456.197 L 751.61 453.427 L 749.545 453.427 L 749.545 456.197 L 748.746 456.197 L 748.746 449.014 L 751.845 449.014 C 752.221 449.014 752.596 449.061 752.925 449.155 C 753.254 449.249 753.535 449.39 753.723 449.577 C 753.958 449.765 754.146 450 754.239 450.235 C 754.38 450.516 754.427 450.798 754.427 451.127 C 754.427 451.408 754.38 451.69 754.286 451.925 C 754.192 452.16 754.052 452.347 753.864 452.535 C 753.676 452.723 753.488 452.864 753.254 452.958 C 753.019 453.052 752.737 453.146 752.455 453.192 L 754.662 456.103 L 753.676 456.103 L 753.676 456.197 Z  M 753.113 450.141 C 752.784 449.906 752.362 449.765 751.751 449.765 L 749.545 449.765 L 749.545 452.676 L 751.751 452.676 C 752.033 452.676 752.268 452.629 752.502 452.582 C 752.737 452.535 752.925 452.394 753.066 452.3 C 753.207 452.16 753.347 452.019 753.441 451.831 C 753.535 451.643 753.582 451.455 753.582 451.221 C 753.582 450.704 753.441 450.376 753.113 450.141 Z " fill="rgb(29,26,106)"/><path d=" M 766.681 449.014 L 766.681 456.197 L 765.836 456.197 L 765.836 449.014 L 766.681 449.014 Z " fill="rgb(29,26,106)"/><path d=" M 785.085 456.197 L 784.192 456.197 L 783.347 454.319 L 779.451 454.319 L 778.606 456.197 L 777.761 456.197 L 781.047 448.967 L 781.798 448.967 L 785.085 456.197 Z  M 781.423 449.906 L 779.779 453.568 L 783.066 453.568 L 781.423 449.906 Z " fill="rgb(29,26,106)"/><path d=" M 796.164 449.014 L 796.962 449.014 L 796.962 455.446 L 801 455.446 L 801 456.197 L 796.164 456.197 L 796.164 449.014 L 796.164 449.014 Z " fill="rgb(29,26,106)"/></g></g></svg>